<?xml version="1.0" standalone="no"?>
<!DOCTYPE svg PUBLIC "-//W3C//DTD SVG 1.1//EN" "http://www.w3.org/Graphics/SVG/1.1/DTD/svg11.dtd" >
<svg xmlns="http://www.w3.org/2000/svg" xmlns:xlink="http://www.w3.org/1999/xlink" version="1.1">
<metadata></metadata>
<defs>
<font id="digitregular" horiz-adv-x="1100" >
<font-face units-per-em="2048" ascent="1638" descent="-410" />
<missing-glyph horiz-adv-x="600" />
<glyph horiz-adv-x="0" />
<glyph horiz-adv-x="682" />
<glyph unicode=" "  horiz-adv-x="600" />
<glyph unicode="&#x09;" horiz-adv-x="600" />
<glyph unicode="&#xa0;" horiz-adv-x="600" />
<glyph unicode="&#x22;" d="M242 1677l37 274h145l-37 -274h-145zM718 1677l37 274h145l-37 -274h-145z" />
<glyph unicode="$" d="M322 145l132 113h162l66 -81l95 81h161l93 -113l-75 -64h-581zM378 1016l103 581l76 64l92 -113l-85 -483l-132 -114zM458 919l95 81h193l67 -81l-95 -80h-194zM595 1693l75 65h581l53 -65l-133 -113h-161l-66 81l-95 -81h-161zM627 322l82 468l95 81l67 -81l-83 -468 l-95 -80zM755 1048l82 468l95 81l67 -81l-83 -468l-95 -80zM813 919l95 81h193l67 -81l-95 -80h-194zM976 290l85 484l133 113l53 -65l-102 -580l-76 -65z" />
<glyph unicode="*" d="M242 81l31 193l369 532l142 49l-46 -194l-346 -484zM306 903l117 80l237 1l82 -81l-117 -81h-237zM478 1532l31 193l119 -96l189 -484l-17 -193l-126 48zM812 661l17 194l126 -49l196 -532l-32 -193l-118 96zM845 952l46 193l346 484l150 96l-32 -193l-369 -532zM887 903 l120 81h247l84 -81l-120 -81h-246z" />
<glyph unicode="+" d="M242 919l94 81h194l67 -81l-95 -80l-194 -1zM411 322l82 468l95 81l66 -81l-82 -468l-95 -80zM539 1048l82 468l95 80l67 -80l-83 -468l-95 -81zM597 919l94 81h194l66 -81l-95 -81h-193z" />
<glyph unicode="," horiz-adv-x="500" d="M242 81l186 290h145l-186 -290h-145z" />
<glyph unicode="-" horiz-adv-x="900" d="M242 919l94 81h194l67 -81l-95 -81h-194zM597 919l94 81h194l66 -81l-95 -81h-193z" />
<glyph unicode="." horiz-adv-x="500" d="M242 81l37 145h145l-37 -145h-145z" />
<glyph unicode="0" d="M242 242l102 580l76 65l93 -113l-85 -484l-133 -113zM322 145l132 113h162l66 -81l95 81h161l93 -113l-75 -64h-581zM378 1016l103 581l76 64l92 -113l-85 -483l-132 -114zM595 1693l75 65h581l53 -65l-133 -113h-161l-66 81l-95 -81h-161zM976 290l85 484l133 113 l53 -65l-102 -580l-76 -65zM1112 1065l86 483l133 113l53 -65l-102 -580l-76 -64z" />
<glyph unicode="1" d="M976 290l85 484l133 113l53 -65l-102 -580l-76 -65zM1112 1065l86 483l133 113l53 -65l-102 -580l-76 -64z" />
<glyph unicode="2" d="M242 242l102 580l76 65l93 -113l-85 -484l-133 -113zM322 145l132 113h162l66 -81l95 81h161l93 -113l-75 -64h-581zM458 919l95 81h193l67 -81l-95 -80h-194zM595 1693l75 65h581l53 -65l-133 -113h-161l-66 81l-95 -81h-161zM813 919l95 81h193l67 -81l-95 -80h-194z M1112 1065l86 483l133 113l53 -65l-102 -580l-76 -64z" />
<glyph unicode="3" d="M322 145l132 113h162l66 -81l95 81h161l93 -113l-75 -64h-581zM458 919l95 81h193l67 -81l-95 -80h-194zM595 1693l75 65h581l53 -65l-133 -113h-161l-66 81l-95 -81h-161zM813 919l95 81h193l67 -81l-95 -80h-194zM976 290l85 484l133 113l53 -65l-102 -580l-76 -65z M1112 1065l86 483l133 113l53 -65l-102 -580l-76 -64z" />
<glyph unicode="4" d="M378 1016l103 581l76 64l92 -113l-85 -483l-132 -114zM458 919l95 81h193l67 -81l-95 -80h-194zM813 919l95 81h193l67 -81l-95 -80h-194zM976 290l85 484l133 113l53 -65l-102 -580l-76 -65zM1112 1065l86 483l133 113l53 -65l-102 -580l-76 -64z" />
<glyph unicode="5" d="M322 145l132 113h162l66 -81l95 81h161l93 -113l-75 -64h-581zM378 1016l103 581l76 64l92 -113l-85 -483l-132 -114zM458 919l95 81h193l67 -81l-95 -80h-194zM595 1693l75 65h581l53 -65l-133 -113h-161l-66 81l-95 -81h-161zM813 919l95 81h193l67 -81l-95 -80h-194z M976 290l85 484l133 113l53 -65l-102 -580l-76 -65z" />
<glyph unicode="6" d="M242 242l102 580l76 65l93 -113l-85 -484l-133 -113zM322 145l132 113h162l66 -81l95 81h161l93 -113l-75 -64h-581zM378 1016l103 581l76 64l92 -113l-85 -483l-132 -114zM458 919l95 81h193l67 -81l-95 -80h-194zM595 1693l75 65h581l53 -65l-133 -113h-161l-66 81 l-95 -81h-161zM813 919l95 81h193l67 -81l-95 -80h-194zM976 290l85 484l133 113l53 -65l-102 -580l-76 -65z" />
<glyph unicode="7" d="M595 1693l75 65h581l53 -65l-133 -113h-161l-66 81l-95 -81h-161zM976 290l85 484l133 113l53 -65l-102 -580l-76 -65zM1112 1065l86 483l133 113l53 -65l-102 -580l-76 -64z" />
<glyph unicode="8" d="M242 242l102 580l76 65l93 -113l-85 -484l-133 -113zM322 145l132 113h162l66 -81l95 81h161l93 -113l-75 -64h-581zM378 1016l103 581l76 64l92 -113l-85 -483l-132 -114zM458 919l95 81h193l67 -81l-95 -80h-194zM595 1693l75 65h581l53 -65l-133 -113h-161l-66 81 l-95 -81h-161zM813 919l95 81h193l67 -81l-95 -80h-194zM976 290l85 484l133 113l53 -65l-102 -580l-76 -65zM1112 1065l86 483l133 113l53 -65l-102 -580l-76 -64z" />
<glyph unicode="9" d="M322 145l132 113h162l66 -81l95 81h161l93 -113l-75 -64h-581zM378 1016l103 581l76 64l92 -113l-85 -483l-132 -114zM458 919l95 81h193l67 -81l-95 -80h-194zM595 1693l75 65h581l53 -65l-133 -113h-161l-66 81l-95 -81h-161zM813 919l95 81h193l67 -81l-95 -80h-194z M976 290l85 484l133 113l53 -65l-102 -580l-76 -65zM1112 1065l86 483l133 113l53 -65l-102 -580l-76 -64z" />
<glyph unicode=":" horiz-adv-x="500" d="M242 597l37 145h145l-37 -145h-145zM323 1000l36 145h146l-37 -145h-145z" />
<glyph unicode=";" horiz-adv-x="600" d="M242 81l186 290h145l-186 -290h-145zM463 468l37 145h145l-37 -145h-145z" />
<glyph unicode="A" d="M242 242l102 580l76 65l93 -113l-85 -484l-133 -113zM378 1016l103 581l76 64l92 -113l-85 -483l-132 -114zM458 919l95 81h193l67 -81l-95 -80h-194zM595 1693l75 65h581l53 -65l-133 -113h-161l-66 81l-95 -81h-161zM813 919l95 81h193l67 -81l-95 -80h-194zM976 290 l85 484l133 113l53 -65l-102 -580l-76 -65zM1112 1065l86 483l133 113l53 -65l-102 -580l-76 -64z" />
<glyph unicode="B" d="M242 145l133 113h161l66 -81l95 81h162l92 -113l-75 -64h-581zM515 1693l76 65h581l52 -65l-132 -113h-162l-66 81l-95 -81h-161zM547 322l83 468l94 81l67 -81l-82 -468l-95 -80zM675 1048l83 468l95 81l66 -81l-82 -468l-95 -80zM733 919l95 81h193l67 -81l-95 -80 h-193zM896 290l86 484l133 113l53 -65l-103 -580l-76 -65zM1033 1065l85 483l133 113l53 -65l-102 -580l-76 -64z" />
<glyph unicode="C" d="M242 242l102 580l76 65l93 -113l-85 -484l-133 -113zM322 145l132 113h162l66 -81l95 81h161l93 -113l-75 -64h-581zM378 1016l103 581l76 64l92 -113l-85 -483l-132 -114zM595 1693l75 65h581l53 -65l-133 -113h-161l-66 81l-95 -81h-161z" />
<glyph unicode="D" d="M242 145l133 113h161l66 -81l95 81h162l92 -113l-75 -64h-581zM515 1693l76 65h581l52 -65l-132 -113h-162l-66 81l-95 -81h-161zM547 322l83 468l94 81l67 -81l-82 -468l-95 -80zM675 1048l83 468l95 81l66 -81l-82 -468l-95 -80zM896 290l86 484l133 113l53 -65 l-103 -580l-76 -65zM1033 1065l85 483l133 113l53 -65l-102 -580l-76 -64z" />
<glyph unicode="E" d="M242 242l102 580l76 65l93 -113l-85 -484l-133 -113zM322 145l132 113h162l66 -81l95 81h161l93 -113l-75 -64h-581zM378 1016l103 581l76 64l92 -113l-85 -483l-132 -114zM458 919l95 81h193l67 -81l-95 -80h-194zM595 1693l75 65h581l53 -65l-133 -113h-161l-66 81 l-95 -81h-161zM813 919l95 81h193l67 -81l-95 -80h-194z" />
<glyph unicode="F" d="M242 242l102 580l76 65l93 -113l-85 -484l-133 -113zM378 1016l103 581l76 64l92 -113l-85 -483l-132 -114zM458 919l95 81h193l67 -81l-95 -80h-194zM595 1693l75 65h581l53 -65l-133 -113h-161l-66 81l-95 -81h-161zM813 919l95 81h193l67 -81l-95 -80h-194z" />
<glyph unicode="G" d="M242 242l102 580l76 65l93 -113l-85 -484l-133 -113zM322 145l132 113h162l66 -81l95 81h161l93 -113l-75 -64h-581zM378 1016l103 581l76 64l92 -113l-85 -483l-132 -114zM595 1693l75 65h581l53 -65l-133 -113h-161l-66 81l-95 -81h-161zM813 919l95 81h193l67 -81 l-95 -80h-194zM976 290l85 484l133 113l53 -65l-102 -580l-76 -65z" />
<glyph unicode="H" d="M242 242l102 580l76 65l93 -113l-85 -484l-133 -113zM378 1016l103 581l76 64l92 -113l-85 -483l-132 -114zM458 919l95 81h193l67 -81l-95 -80h-194zM813 919l95 81h193l67 -81l-95 -80h-194zM976 290l85 484l133 113l53 -65l-102 -580l-76 -65zM1112 1065l86 483 l133 113l53 -65l-102 -580l-76 -64z" />
<glyph unicode="I" horiz-adv-x="500" d="M242 338l82 468l95 81l67 -81l-83 -468l-95 -80zM370 1064l82 468l95 81l67 -81l-83 -468l-95 -80z" />
<glyph unicode="J" d="M242 242l102 580l76 65l93 -113l-85 -484l-133 -113zM322 145l132 113h162l66 -81l95 81h161l93 -113l-75 -64h-581zM976 290l85 484l133 113l53 -65l-102 -580l-76 -65zM1112 1065l86 483l133 113l53 -65l-102 -580l-76 -64z" />
<glyph unicode="K" d="M242 242l102 580l76 65l93 -113l-85 -484l-133 -113zM378 1016l103 581l76 64l92 -113l-85 -483l-132 -114zM458 919l95 81h193l67 -81l-95 -80h-194zM812 661l17 194l126 -49l196 -532l-32 -193l-118 96zM845 952l46 193l346 484l150 96l-32 -193l-369 -532z" />
<glyph unicode="L" d="M242 242l102 580l76 65l93 -113l-85 -484l-133 -113zM322 145l132 113h162l66 -81l95 81h161l93 -113l-75 -64h-581zM378 1016l103 581l76 64l92 -113l-85 -483l-132 -114z" />
<glyph unicode="M" d="M242 242l102 580l76 65l93 -113l-85 -484l-133 -113zM378 1016l103 581l76 64l92 -113l-85 -483l-132 -114zM595 1693l75 65h581l53 -65l-133 -113h-161l-66 81l-95 -81h-161zM755 1048l82 468l95 81l67 -81l-83 -468l-95 -80zM976 290l85 484l133 113l53 -65l-102 -580 l-76 -65zM1112 1065l86 483l133 113l53 -65l-102 -580l-76 -64z" />
<glyph unicode="N" d="M242 242l102 580l76 65l93 -113l-85 -484l-133 -113zM378 1016l103 581l76 64l92 -113l-85 -483l-132 -114zM595 1693l75 65h581l53 -65l-133 -113h-161l-66 81l-95 -81h-161zM976 290l85 484l133 113l53 -65l-102 -580l-76 -65zM1112 1065l86 483l133 113l53 -65 l-102 -580l-76 -64z" />
<glyph unicode="O" d="M242 242l102 580l76 65l93 -113l-85 -484l-133 -113zM322 145l132 113h162l66 -81l95 81h161l93 -113l-75 -64h-581zM378 1016l103 581l76 64l92 -113l-85 -483l-132 -114zM595 1693l75 65h581l53 -65l-133 -113h-161l-66 81l-95 -81h-161zM976 290l85 484l133 113 l53 -65l-102 -580l-76 -65zM1112 1065l86 483l133 113l53 -65l-102 -580l-76 -64z" />
<glyph unicode="P" d="M242 242l102 580l76 65l93 -113l-85 -484l-133 -113zM378 1016l103 581l76 64l92 -113l-85 -483l-132 -114zM458 919l95 81h193l67 -81l-95 -80h-194zM595 1693l75 65h581l53 -65l-133 -113h-161l-66 81l-95 -81h-161zM813 919l95 81h193l67 -81l-95 -80h-194zM1112 1065 l86 483l133 113l53 -65l-102 -580l-76 -64z" />
<glyph unicode="Q" d="M242 242l102 580l76 65l93 -113l-85 -484l-133 -113zM322 145l132 113h162l66 -81l95 81h161l93 -113l-75 -64h-581zM378 1016l103 581l76 64l92 -113l-85 -483l-132 -114zM595 1693l75 65h581l53 -65l-133 -113h-161l-66 81l-95 -81h-161zM874 532l51 290l54 -241 l-51 -291zM976 290l85 484l133 113l53 -65l-102 -580l-76 -65zM1112 1065l86 483l133 113l53 -65l-102 -580l-76 -64z" />
<glyph unicode="R" d="M242 242l102 580l76 65l93 -113l-85 -484l-133 -113zM378 1016l103 581l76 64l92 -113l-85 -483l-132 -114zM458 919l95 81h193l67 -81l-95 -80h-194zM595 1693l75 65h581l53 -65l-133 -113h-161l-66 81l-95 -81h-161zM627 322l82 468l95 81l67 -81l-83 -468l-95 -80z M813 919l95 81h193l67 -81l-95 -80h-194zM1112 1065l86 483l133 113l53 -65l-102 -580l-76 -64z" />
<glyph unicode="S" d="M322 145l132 113h162l66 -81l95 81h161l93 -113l-75 -64h-581zM378 1016l103 581l76 64l92 -113l-85 -483l-132 -114zM458 919l95 81h193l67 -81l-95 -80h-194zM595 1693l75 65h581l53 -65l-133 -113h-161l-66 81l-95 -81h-161zM813 919l95 81h193l67 -81l-95 -80h-194z M976 290l85 484l133 113l53 -65l-102 -580l-76 -65z" />
<glyph unicode="T" d="M595 1693l75 65h581l53 -65l-133 -113h-161l-66 81l-95 -81h-161zM627 322l82 468l95 81l67 -81l-83 -468l-95 -80zM755 1048l82 468l95 81l67 -81l-83 -468l-95 -80z" />
<glyph unicode="U" d="M242 242l102 580l76 65l93 -113l-85 -484l-133 -113zM322 145l132 113h162l66 -81l95 81h161l93 -113l-75 -64h-581zM378 1016l103 581l76 64l92 -113l-85 -483l-132 -114zM976 290l85 484l133 113l53 -65l-102 -580l-76 -65zM1112 1065l86 483l133 113l53 -65l-102 -580 l-76 -64z" />
<glyph unicode="V" d="M242 242l102 580l76 65l93 -113l-85 -484l-133 -113zM378 1016l103 581l76 64l92 -113l-85 -483l-132 -114zM468 274l16 129l500 564l112 33l81 -113l-532 -613h-177zM1112 1065l86 483l133 113l53 -65l-102 -580l-76 -64z" />
<glyph unicode="W" d="M242 242l102 580l76 65l93 -113l-85 -484l-133 -113zM322 145l132 113h162l66 -81l95 81h161l93 -113l-75 -64h-581zM378 1016l103 581l76 64l92 -113l-85 -483l-132 -114zM627 322l82 468l95 81l67 -81l-83 -468l-95 -80zM976 290l85 484l133 113l53 -65l-102 -580 l-76 -65zM1112 1065l86 483l133 113l53 -65l-102 -580l-76 -64z" />
<glyph unicode="X" d="M242 81l31 193l369 532l142 49l-46 -194l-347 -484zM478 1532l31 193l119 -96l188 -484l-16 -193l-126 48zM812 661l17 194l126 -49l196 -532l-32 -193l-118 96zM845 952l46 193l346 484l150 96l-32 -193l-369 -532z" />
<glyph unicode="Y" d="M322 145l132 113h162l66 -81l95 81h161l93 -113l-75 -64h-581zM378 1016l103 581l76 64l92 -113l-85 -483l-132 -114zM458 919l95 81h193l67 -81l-95 -80h-194zM813 919l95 81h193l67 -81l-95 -80h-194zM976 290l85 484l133 113l53 -65l-102 -580l-76 -65zM1112 1065 l86 483l133 113l53 -65l-102 -580l-76 -64z" />
<glyph unicode="Z" d="M242 194v193l322 468l162 48v-113l-355 -500zM273 145l133 113h161l67 -81l95 81h161l93 -113l-76 -64h-581zM546 1693l76 65h581l53 -65l-133 -113h-161l-67 81l-94 -81h-162zM726 903v113l387 500l145 113l-16 -210l-355 -467z" />
<glyph unicode="a" d="M242 242l32 193l81 81l97 -113l-24 -113l-133 -113zM322 145l132 113h162l66 -81l95 81h161l93 -113l-75 -64h-581zM387 516l95 81h179l49 -81l-97 -81h-160zM458 919l95 81h193l67 -81l-95 -80h-194zM774 516l97 81h161l64 -81l-96 -81h-143zM813 919l95 81h193l67 -81 l-95 -80h-194zM976 290l93 -113l76 65l32 193l-48 81l-129 -113zM1032 629l29 145l133 113l53 -65l-37 -225l-81 -81z" />
<glyph unicode="b" d="M242 242l102 580l76 65l93 -113l-85 -484l-133 -113zM322 145l132 113h162l66 -81l95 81h161l93 -113l-75 -64h-581zM378 1016l103 581l76 64l92 -113l-85 -483l-132 -114zM458 919l95 81h193l67 -81l-95 -80h-194zM813 919l95 81h193l67 -81l-95 -80h-194zM976 290 l85 484l133 113l53 -65l-102 -580l-76 -65z" />
<glyph unicode="c" d="M242 242l102 580l76 65l93 -113l-85 -484l-133 -113zM322 145l132 113h162l66 -81l95 81h161l93 -113l-75 -64h-581zM458 919l95 81h193l67 -81l-95 -80h-194zM813 919l95 81h193l67 -81l-95 -80h-194z" />
<glyph unicode="d" d="M242 242l102 580l76 65l93 -113l-85 -484l-133 -113zM322 145l132 113h162l66 -81l95 81h161l93 -113l-75 -64h-581zM458 919l95 81h193l67 -81l-95 -80h-194zM813 919l95 81h193l67 -81l-95 -80h-194zM976 290l85 484l133 113l53 -65l-102 -580l-76 -65zM1112 1065 l86 483l133 113l53 -65l-102 -580l-76 -64z" />
<glyph unicode="e" d="M242 242l53 -65l133 113l24 113l-97 113l-81 -81zM306 597l38 225l76 65l93 -113l-29 -145l-129 -113zM322 145l132 113h162l66 -81l95 81h161l93 -113l-75 -64h-581zM387 516l95 81h179l49 -81l-97 -81h-160zM458 919l95 81h193l67 -81l-95 -80h-194zM774 516l97 81h161 l64 -81l-96 -81h-143zM813 919l95 81h193l67 -81l-95 -80h-194zM1032 629l29 145l133 113l53 -65l-37 -225l-81 -81z" />
<glyph unicode="f" d="M242 242l53 -65l133 113l24 113l-97 113l-81 -81zM306 597l38 225l76 65l93 -113l-29 -145l-129 -113zM387 516l95 81h179l49 -81l-97 -81h-160zM458 919l95 81h193l67 -81l-95 -80h-194zM774 516l97 81h161l64 -81l-96 -81h-143zM813 919l95 81h193l67 -81l-95 -80h-194 z" />
<glyph unicode="g" d="M306 597l38 225l76 65l93 -113l-29 -145l-129 -113zM322 145l132 113h162l66 -81l95 81h161l93 -113l-75 -64h-581zM387 516l95 81h179l49 -81l-97 -81h-160zM458 919l95 81h193l67 -81l-95 -80h-194zM774 516l97 81h161l64 -81l-96 -81h-143zM813 919l95 81h193l67 -81 l-95 -80h-194zM976 290l93 -113l76 65l32 193l-48 81l-129 -113zM1032 629l29 145l133 113l53 -65l-37 -225l-81 -81z" />
<glyph unicode="h" d="M242 242l102 580l76 65l93 -113l-85 -484l-133 -113zM378 1016l103 581l76 64l92 -113l-85 -483l-132 -114zM458 919l95 81h193l67 -81l-95 -80h-194zM813 919l95 81h193l67 -81l-95 -80h-194zM976 290l85 484l133 113l53 -65l-102 -580l-76 -65z" />
<glyph unicode="i" horiz-adv-x="500" d="M242 322l66 -80l95 80l18 113l-64 81l-97 -81zM292 613l32 177l95 81l67 -81l-33 -194l-96 -80z" />
<glyph unicode="j" d="M242 242l32 193l81 81l97 -113l-24 -113l-133 -113zM322 145l132 113h162l66 -81l95 81h161l93 -113l-75 -64h-581zM976 290l93 -113l76 65l32 193l-48 81l-129 -113zM1032 629l29 145l133 113l53 -65l-37 -225l-81 -81z" />
<glyph unicode="k" d="M242 242l53 -65l133 113l24 113l-97 113l-81 -81zM306 597l38 225l76 65l93 -113l-29 -145l-129 -113zM378 1016l103 581l76 64l92 -113l-85 -483l-132 -114zM387 516l95 81h179l49 -81l-97 -81h-160zM720 365l5 95l115 -24l204 -260l-18 -95l-111 47zM734 507l31 96 l284 237l128 47l-18 -95l-301 -261z" />
<glyph unicode="l" horiz-adv-x="700" d="M242 242l102 580l76 65l93 -113l-85 -484l-133 -113zM322 145l132 113h162l126 -177h-367zM378 1016l103 581l76 64l92 -113l-85 -483l-132 -114z" />
<glyph unicode="m" d="M242 242l102 580l76 65l93 -113l-85 -484l-133 -113zM458 919l95 81h193l67 -81l-95 -80h-194zM627 322l82 468l95 81l67 -81l-83 -468l-95 -80zM813 919l95 81h193l67 -81l-95 -80h-194zM976 290l85 484l133 113l53 -65l-102 -580l-76 -65z" />
<glyph unicode="n" d="M242 242l102 580l76 65l93 -113l-85 -484l-133 -113zM458 919l95 81h193l67 -81l-95 -80h-194zM813 919l95 81h193l67 -81l-95 -80h-194zM976 290l85 484l133 113l53 -65l-102 -580l-76 -65z" />
<glyph unicode="o" d="M242 242l102 580l76 65l93 -113l-85 -484l-133 -113zM322 145l132 113h162l66 -81l95 81h161l93 -113l-75 -64h-581zM458 919l95 81h193l67 -81l-95 -80h-194zM813 919l95 81h193l67 -81l-95 -80h-194zM976 290l85 484l133 113l53 -65l-102 -580l-76 -65z" />
<glyph unicode="p" d="M242 242l53 -65l133 113l24 113l-97 113l-81 -81zM306 597l38 225l76 65l93 -113l-29 -145l-129 -113zM387 516l95 81h179l49 -81l-97 -81h-160zM458 919l95 81h193l67 -81l-95 -80h-194zM774 516l97 81h161l64 -81l-96 -81h-143zM813 919l95 81h193l67 -81l-95 -80h-194 zM1032 629l29 145l133 113l53 -65l-37 -225l-81 -81z" />
<glyph unicode="q" d="M306 597l38 225l76 65l93 -113l-29 -145l-129 -113zM387 516l95 81h179l49 -81l-97 -81h-160zM458 919l95 81h193l67 -81l-95 -80h-194zM774 516l97 81h161l64 -81l-96 -81h-143zM813 919l95 81h193l67 -81l-95 -80h-194zM976 290l93 -113l76 65l32 193l-48 81l-129 -113 zM1032 629l29 145l133 113l53 -65l-37 -225l-81 -81z" />
<glyph unicode="r" horiz-adv-x="800" d="M242 242l102 580l76 65l93 -113l-85 -484l-133 -113zM458 919l95 81h193l67 -81l-95 -80h-194z" />
<glyph unicode="s" d="M306 597l38 225l76 65l93 -113l-29 -145l-129 -113zM322 145l132 113h162l66 -81l95 81h161l93 -113l-75 -64h-581zM387 516l95 81h179l49 -81l-97 -81h-160zM458 919l95 81h193l67 -81l-95 -80h-194zM774 516l97 81h161l64 -81l-96 -81h-143zM813 919l95 81h193l67 -81 l-95 -80h-194zM976 290l24 113l129 113l48 -81l-32 -193l-76 -65z" />
<glyph unicode="t" horiz-adv-x="1000" d="M242 242l102 580l76 65l93 -113l-85 -484l-133 -113zM322 145l132 113h162l66 -81l95 81h161l93 -113l-75 -64h-581zM378 1016l103 581l76 64l92 -113l-85 -483l-132 -114zM458 919l95 81h193l67 -81l-95 -80h-194z" />
<glyph unicode="u" d="M242 242l102 580l76 65l93 -113l-85 -484l-133 -113zM322 145l132 113h162l66 -81l95 81h161l93 -113l-75 -64h-581zM976 290l85 484l133 113l53 -65l-102 -580l-76 -65z" />
<glyph unicode="v" d="M242 116l60 315l64 35l87 -61l-50 -263l-111 -61zM322 536l61 316l63 35l88 -61l-51 -263l-110 -62zM439 133l8 70l410 307l98 18l77 -62l-437 -333h-156zM966 563l50 263l111 61l50 -35l-60 -315l-64 -36z" />
<glyph unicode="w" d="M242 242l53 -65l133 113l24 113l-97 113l-81 -81zM306 597l38 225l76 65l93 -113l-29 -145l-129 -113zM322 145l132 113h162l66 -81l95 81h161l93 -113l-75 -64h-581zM627 322l66 -80l95 80l18 113l-64 81l-97 -81zM677 613l32 177l95 81l67 -81l-33 -194l-96 -80z M976 290l93 -113l76 65l32 193l-48 81l-129 -113zM1032 629l29 145l133 113l53 -65l-37 -225l-81 -81z" />
<glyph unicode="x" d="M242 81l18 95l301 260l124 24l-31 -95l-284 -237zM375 792l18 95l111 -48l194 -237l-4 -95l-115 24zM721 365l4 95l115 -24l204 -260l-18 -95l-111 47zM734 507l31 95l284 237l128 48l-18 -95l-301 -261z" />
<glyph unicode="y" d="M306 597l38 225l76 65l93 -113l-29 -145l-129 -113zM322 145l132 113h162l66 -81l95 81h161l93 -113l-75 -64h-581zM387 516l95 81h179l49 -81l-97 -81h-160zM774 516l97 81h161l64 -81l-96 -81h-143zM976 290l93 -113l76 65l32 193l-48 81l-129 -113zM1032 629l29 145 l133 113l53 -65l-37 -225l-81 -81z" />
<glyph unicode="z" d="M242 177v146l339 225h145l-33 -96l-274 -210zM322 145l226 113h68l66 -81l95 81h161l93 -113l-75 -64h-581zM458 919l95 81h193l67 -81l-95 -80h-194zM726 548l32 97l226 161l193 65l-16 -145l-290 -178h-145zM813 919l95 81h193l67 -81l-216 -81l-73 1z" />
<glyph unicode="&#xad;" horiz-adv-x="900" d="M242 919l94 81h194l67 -81l-95 -81h-194zM597 919l94 81h194l66 -81l-95 -81h-193z" />
<glyph unicode="&#xc1;" d="M242 242l102 580l76 65l93 -113l-85 -484l-133 -113zM378 1016l103 581l76 64l92 -113l-85 -483l-132 -114zM458 919l95 81h193l67 -81l-95 -80h-194zM595 1693l75 65h581l53 -65l-133 -113h-161l-66 81l-95 -81h-161zM813 919l95 81h193l67 -81l-95 -80h-194zM855 1806 l145 145h193l-145 -145h-193zM976 290l85 484l133 113l53 -65l-102 -580l-76 -65zM1112 1065l86 483l133 113l53 -65l-102 -580l-76 -64z" />
<glyph unicode="&#xc9;" d="M242 242l102 580l76 65l93 -113l-85 -484l-133 -113zM322 145l132 113h162l66 -81l95 81h161l93 -113l-75 -64h-581zM378 1016l103 581l76 64l92 -113l-85 -483l-132 -114zM458 919l95 81h193l67 -81l-95 -80h-194zM595 1693l75 65h581l53 -65l-133 -113h-161l-66 81 l-95 -81h-161zM813 919l95 81h193l67 -81l-95 -80h-194zM855 1806l145 145h193l-145 -145h-193z" />
<glyph unicode="&#xcd;" horiz-adv-x="500" d="M242 338l82 468l95 81l67 -81l-83 -468l-95 -80zM370 1064l82 468l95 81l67 -81l-83 -468l-95 -80zM470 1822l145 145h193l-145 -145h-193z" />
<glyph unicode="&#xd1;" d="M242 242l102 580l76 65l93 -113l-85 -484l-133 -113zM378 1016l103 581l76 64l92 -113l-85 -483l-132 -114zM595 1693l75 65h581l53 -65l-133 -113h-161l-66 81l-95 -81h-161zM733 1854l36 146h521l-37 -146h-520zM976 290l85 484l133 113l53 -65l-102 -580l-76 -65z M1112 1065l86 483l133 113l53 -65l-102 -580l-76 -64z" />
<glyph unicode="&#xd3;" d="M242 242l102 580l76 65l93 -113l-85 -484l-133 -113zM322 145l132 113h162l66 -81l95 81h161l93 -113l-75 -64h-581zM378 1016l103 581l76 64l92 -113l-85 -483l-132 -114zM595 1693l75 65h581l53 -65l-133 -113h-161l-66 81l-95 -81h-161zM855 1806l145 145h193 l-145 -145h-193zM976 290l85 484l133 113l53 -65l-102 -580l-76 -65zM1112 1065l86 483l133 113l53 -65l-102 -580l-76 -64z" />
<glyph unicode="&#xda;" d="M242 242l102 580l76 65l93 -113l-85 -484l-133 -113zM322 145l132 113h162l66 -81l95 81h161l93 -113l-75 -64h-581zM378 1016l103 581l76 64l92 -113l-85 -483l-132 -114zM855 1806l145 145h193l-145 -145h-193zM976 290l85 484l133 113l53 -65l-102 -580l-76 -65z M1112 1065l86 483l133 113l53 -65l-102 -580l-76 -64z" />
<glyph unicode="&#xdc;" d="M242 242l102 580l76 65l93 -113l-85 -484l-133 -113zM322 145l132 113h162l66 -81l95 81h161l93 -113l-75 -64h-581zM378 1016l103 581l76 64l92 -113l-85 -483l-132 -114zM540 1806l37 145h145l-37 -145h-145zM976 290l85 484l133 113l53 -65l-102 -580l-76 -65z M1112 1065l86 483l133 113l53 -65l-102 -580l-76 -64zM1269 1806l37 145h145l-36 -145h-146z" />
<glyph unicode="&#xe1;" d="M242 242l32 193l81 81l97 -113l-24 -113l-133 -113zM322 145l132 113h162l66 -81l95 81h161l93 -113l-75 -64h-581zM387 516l95 81h179l49 -81l-97 -81h-160zM458 919l95 81h193l67 -81l-95 -80h-194zM693 1064l146 146h193l-145 -146h-194zM774 516l97 81h161l64 -81 l-96 -81h-143zM813 919l95 81h193l67 -81l-95 -80h-194zM976 290l93 -113l76 65l32 193l-48 81l-129 -113zM1032 629l29 145l133 113l53 -65l-37 -225l-81 -81z" />
<glyph unicode="&#xe9;" d="M242 242l53 -65l133 113l24 113l-97 113l-81 -81zM306 597l38 225l76 65l93 -113l-29 -145l-129 -113zM322 145l132 113h162l66 -81l95 81h161l93 -113l-75 -64h-581zM387 516l95 81h179l49 -81l-97 -81h-160zM458 919l95 81h193l67 -81l-95 -80h-194zM693 1064l146 146 h193l-145 -146h-194zM774 516l97 81h161l64 -81l-96 -81h-143zM813 919l95 81h193l67 -81l-95 -80h-194zM1032 629l29 145l133 113l53 -65l-37 -225l-81 -81z" />
<glyph unicode="&#xed;" horiz-adv-x="500" d="M242 322l66 -80l95 80l18 113l-64 81l-97 -81zM292 613l32 177l95 81l67 -81l-33 -194l-96 -80zM308 1064l146 146h193l-145 -146h-194z" />
<glyph unicode="&#xf1;" d="M242 242l53 -65l133 113l24 113l-97 113l-81 -81zM306 597l38 225l76 65l93 -113l-29 -145l-129 -113zM458 919l95 81h193l67 -81l-95 -80h-194zM588 1113l36 145h521l-37 -145h-520zM813 919l95 81h193l67 -81l-95 -80h-194zM976 290l93 -113l76 65l32 193l-48 81 l-129 -113zM1032 629l29 145l133 113l53 -65l-37 -225l-81 -81z" />
<glyph unicode="&#xf3;" d="M242 242l53 -65l133 113l24 113l-97 113l-81 -81zM306 597l38 225l76 65l93 -113l-29 -145l-129 -113zM322 145l132 113h162l66 -81l95 81h161l93 -113l-75 -64h-581zM458 919l95 81h193l67 -81l-95 -80h-194zM693 1064l146 146h193l-145 -146h-194zM813 919l95 81h193 l67 -81l-95 -80h-194zM976 290l93 -113l76 65l32 193l-48 81l-129 -113zM1032 629l29 145l133 113l53 -65l-37 -225l-81 -81z" />
<glyph unicode="&#xfa;" d="M242 242l53 -65l133 113l24 113l-97 113l-81 -81zM306 597l38 225l76 65l93 -113l-29 -145l-129 -113zM322 145l132 113h162l66 -81l95 81h161l93 -113l-75 -64h-581zM693 1064l146 146h193l-145 -146h-194zM976 290l93 -113l76 65l32 193l-48 81l-129 -113zM1032 629 l29 145l133 113l53 -65l-37 -225l-81 -81z" />
<glyph unicode="&#xfc;" d="M242 242l53 -65l133 113l24 113l-97 113l-81 -81zM306 597l38 225l76 65l93 -113l-29 -145l-129 -113zM322 145l132 113h162l66 -81l95 81h161l93 -113l-75 -64h-581zM395 1064l37 146h145l-37 -146h-145zM976 290l93 -113l76 65l32 193l-48 81l-129 -113zM1032 629 l29 145l133 113l53 -65l-37 -225l-81 -81zM1124 1064l37 146h145l-36 -146h-146z" />
<glyph unicode="&#x2000;" horiz-adv-x="1000" />
<glyph unicode="&#x2001;" horiz-adv-x="2000" />
<glyph unicode="&#x2002;" horiz-adv-x="1000" />
<glyph unicode="&#x2003;" horiz-adv-x="2000" />
<glyph unicode="&#x2004;" horiz-adv-x="666" />
<glyph unicode="&#x2005;" horiz-adv-x="500" />
<glyph unicode="&#x2006;" horiz-adv-x="333" />
<glyph unicode="&#x2007;" horiz-adv-x="333" />
<glyph unicode="&#x2008;" horiz-adv-x="250" />
<glyph unicode="&#x2009;" horiz-adv-x="400" />
<glyph unicode="&#x200a;" horiz-adv-x="111" />
<glyph unicode="&#x2010;" horiz-adv-x="900" d="M242 919l94 81h194l67 -81l-95 -81h-194zM597 919l94 81h194l66 -81l-95 -81h-193z" />
<glyph unicode="&#x2011;" horiz-adv-x="900" d="M242 919l94 81h194l67 -81l-95 -81h-194zM597 919l94 81h194l66 -81l-95 -81h-193z" />
<glyph unicode="&#x2012;" horiz-adv-x="900" d="M242 919l94 81h194l67 -81l-95 -81h-194zM597 919l94 81h194l66 -81l-95 -81h-193z" />
<glyph unicode="&#x2013;" horiz-adv-x="1215" d="M242 919l136 81h280l97 -81l-137 -81h-281zM755 919l135 81h281l95 -81l-137 -81h-279z" />
<glyph unicode="&#x2014;" horiz-adv-x="2239" d="M242 919l272 81h560l193 -81l-274 -81h-560zM1267 919l272 81h560l191 -81l-274 -81h-558z" />
<glyph unicode="&#x202f;" horiz-adv-x="400" />
<glyph unicode="&#x205f;" horiz-adv-x="500" />
<glyph unicode="&#x25fc;" horiz-adv-x="885" d="M0 0v885h885v-885h-885z" />
</font>
</defs>
</svg>
