<?xml version="1.0"?>
<svg width="201" height="197" xmlns="http://www.w3.org/2000/svg">
 <g>
  <path xmlns="http://www.w3.org/2000/svg" id="svg_2" d="m88.275749,12.770495c15.845421,-2.123048 32.319496,-0.182237 46.99865,6.278026c15.672226,6.770063 29.276184,18.250921 38.542862,32.601995c9.221085,14.105053 14.168823,30.952755 14.022995,47.809574c0.027374,18.542503 -6.17775,37.012093 -17.321472,51.827873c-13.931946,18.779419 -35.699982,31.52681 -58.925995,34.324127c-13.458069,1.18454 -27.289772,0.473831 -40.046272,-4.300751c-17.458233,-6.159576 -32.811584,-18.050476 -43.144381,-33.412964c-11.535507,-16.947937 -16.765665,-38.078171 -14.396621,-58.452141c1.867907,-17.430862 9.23025,-34.205673 20.747567,-47.41777c13.558353,-15.763409 32.920914,-26.378643 53.522667,-29.25797z" fill="#401818" stroke-width="15px" stroke="#401818"/>
  <path id="svg_3" d="m63.409973,20.509998c28.080017,-13.139997 63.090027,-10.349998 88.420044,7.670002c13.399963,9.369999 24.109985,22.580002 30.339966,37.709999c-8.570007,-2.419998 -17.359985,-4.190002 -26.25,-4.849998c-4.549988,-0.230003 -9.399963,2.220001 -13.659973,-0.25c-5.27002,-2.950005 -8.440002,-8.340004 -12.150024,-12.889999c-4.349976,-5.310001 -7.23999,-12.080002 -13.279968,-15.77c-5.059998,-3.09 -10.98999,-4.59 -16.860046,-5.02c-7.329956,-0.5 -14.319946,2.529999 -20.359985,6.389999c-3.359985,2.18 -7.019958,4.41 -8.959961,8.040001c-1.730042,3.5 -2.350037,7.440002 -4.25,10.870003c-1.580017,3.169998 -4.059998,6.519997 -2.910034,10.269997c0.97998,3.889999 4.75,5.839996 8.040039,7.510002c0.139954,4.849998 3.929993,7.93 6.769958,11.369995c2.919983,3.200005 0.130005,7.520004 0.799988,11.25c2.210022,0.270004 4.450012,-0.07 6.680054,0.010002c3.709961,2.669998 7.089966,5.790001 10.679993,8.639999c-4.410034,0.050003 -9.050049,-0.07 -13.080017,1.959999c-5.940002,2.800003 -9.880005,8.339996 -13.280029,13.740005c-1.699951,2.589996 -2.699951,5.709991 -2.179993,8.830002c3.720032,19.720001 7.230042,39.860001 16.369995,57.959991c-31.940002,-5.309998 -59.149963,-30.619995 -67.609985,-61.73999c-5.049988,-17.94001 -3.940002,-37.51001 3.02002,-54.800003c8.059998,-20.330002 23.869995,-37.580002 43.709961,-46.900005z" fill="#d43136"/>
  <path id="svg_19" d="m106.090027,105.769997c1.459961,-3.719994 5.329956,-5.839996 8.98999,-6.919998c3.25,-1.199997 6.529968,0.450005 9.549988,1.580002c2.210022,1.029999 5.130005,1.879997 5.789978,4.580002c-1.619995,3.119995 -4.700012,5.25 -5.959961,8.590004c-1.980042,5.289993 -1.920044,11.079987 -3.650024,16.449997c-1.609985,5.5 -4.919983,10.23999 -7.429993,15.319992c-2.640015,5.160004 -4.390015,10.710007 -6.75,15.990005c-5.130005,-12.449997 -14.119995,-22.610001 -21.179993,-33.919998c-0.869995,-1.970001 -3.309998,-5.139999 -0.690002,-6.669998c2.969971,-1.820007 6.279968,-3.020004 9.320007,-4.730011c2.559998,-1.439987 5.839966,-1.98999 8.559998,-0.610001c2.070007,1.170013 2.039978,3.840012 2.690002,5.850006c2.469971,-0.720001 4.98999,-1.190002 7.559998,-1.509995c-1.880005,-4.860001 -3.679993,-9.780006 -6.799988,-14.000008z" fill="#d43136"/>
 </g>
</svg>